#!OML:ASF E:\Style6\Style6.ASF
:FULLY-SPECIFIED
:DEGREES
1790
root 0.177702 18.2906 0.279432 7.42746 -4.89268 -3.44871
lowerback -8.74359 -0.00086103 3.67119
upperback -3.54941 -0.350993 2.32968
thorax 1.21529 -0.191051 0.30883
lowerneck -8.30107 -0.1147 4.14887
upperneck 16.2966 -0.110717 -4.03524
head 6.29971 -0.124973 -1.98259
rclavicle 0 -6.36111e-015
rhumerus 21.5001 23.6029 -42.0786
rradius 64.2422
rwrist 9.41056
rhand -7.21941 7.28493
rfingers 7.12502
rthumb 18.6598 -21.8401
lclavicle 0 -6.36111e-015
lhumerus 0.84143 -12.0874 67.0086
lradius 50.7758
lwrist -26.7232
lhand -17.6528 17.7001
lfingers 7.12502
lthumb 8.60542 47.5048
rfemur 0 0 0
rtibia 0
rfoot 0 0
rtoes 0
lfemur -10.1454 -24.5002 -13.5052
ltibia 17.2723
lfoot -6.61833 29.2807
ltoes -9.3977
1791
root 0.178881 18.292 0.281836 7.54808 -4.92949 -3.42572
lowerback -8.65515 0.032977 3.63729
upperback -3.56084 -0.298347 2.34875
thorax 1.15619 -0.165279 0.352673
lowerneck -8.38352 -0.112961 4.11796
upperneck 16.2237 -0.112042 -4.01055
head 6.2911 -0.126285 -1.96925
rclavicle -2.23633e-016 -2.3059e-014
rhumerus 19.4629 20.3902 -42.9725
rradius 63.1627
rwrist 10.2807
rhand -6.97638 6.97376
rfingers 7.12502
rthumb 18.8935 -22.1287
lclavicle -2.23633e-016 -2.3059e-014
lhumerus 0.327593 -8.53022 66.1698
lradius 50.0389
lwrist -26.0473
lhand -17.8964 17.9697
lfingers 7.12502
lthumb 8.37031 47.7838
rfemur 0 0 0
rtibia 0
rfoot 0 0
rtoes 0
lfemur -10.2252 -24.5689 -13.4839
ltibia 17.1944
lfoot -6.8468 29.3831
ltoes -8.63826
1792
root 0.180045 18.2932 0.286521 7.65777 -4.99581 -3.40911
lowerback -8.48684 0.0493549 3.60286
upperback -3.61737 -0.262771 2.37091
thorax 1.00596 -0.149487 0.398396
lowerneck -8.4083 -0.103089 4.15409
upperneck 16.2072 -0.096864 -4.06011
head 6.29062 -0.12088 -1.98987
rclavicle -2.41026e-015 2.62396e-014
rhumerus 17.6294 17.0513 -43.8802
rradius 61.9695
rwrist 11.288
rhand -6.94025 6.52245
rfingers 7.12502
rthumb 18.9283 -22.5766
lclavicle -2.41026e-015 2.62396e-014
lhumerus -0.301145 -4.868 65.229
lradius 49.3245
lwrist -25.5793
lhand -18.2344 18.3699
lfingers 7.12502
lthumb 8.04409 48.1968
rfemur 0 0 0
rtibia 0
rfoot 0 0
rtoes 0
lfemur -10.2936 -24.6303 -13.4663
ltibia 17.1311
lfoot -7.09959 29.4869
ltoes -7.79022
1793
root 0.181319 18.2936 0.290452 7.7967 -5.08328 -3.36859
lowerback -8.32404 0.0726506 3.55495
upperback -3.67397 -0.217337 2.38934
thorax 0.85887 -0.128543 0.448508
lowerneck -8.4574 -0.104625 4.08079
upperneck 16.1691 -0.0980621 -4.01426
head 6.2873 -0.122738 -1.96293
rclavicle -1.00386e-014 1.19271e-014
rhumerus 15.9747 13.6116 -44.6056
rradius 60.7487
rwrist 12.6673
rhand -7.17368 5.99803
rfingers 7.12502
rthumb 18.7038 -23.1228
lclavicle -1.00386e-014 1.19271e-014
lhumerus -0.835054 -1.00611 64.2646
lradius 48.5051
lwrist -25.6304
lhand -18.1818 18.8595
lfingers 7.12502
lthumb 8.09491 48.6844
rfemur 0 0 0
rtibia 0
rfoot 0 0
rtoes 0
lfemur -10.4074 -24.6373 -13.4625
ltibia 17.0704
lfoot -6.96189 29.5945
ltoes -8.10875
1794
root 0.182304 18.2957 0.29298 7.94892 -5.15681 -3.25971
lowerback -8.29371 0.0907114 3.43218
upperback -3.6402 -0.1838 2.38982
thorax 0.878447 -0.110175 0.520642
lowerneck -8.58118 -0.0920748 3.98868
upperneck 16.062 -0.0787451 -3.98089
head 6.27603 -0.117432 -1.93488
rclavicle -1.97045e-014 -2.54444e-014
rhumerus 14.3819 10.31 -44.8593
rradius 59.8887
rwrist 13.9039
rhand -7.63228 5.56784
rfingers 7.12502
rthumb 18.2626 -23.5949
lclavicle -1.97045e-014 -2.54444e-014
lhumerus -1.21763 2.55197 63.1479
lradius 47.7075
lwrist -25.5028
lhand -17.9766 19.6915
lfingers 7.12502
lthumb 8.29292 49.5088
rfemur 0 0 0
rtibia 0
rfoot 0 0
rtoes 0
lfemur -10.5694 -24.6607 -13.5258
ltibia 17.072
lfoot -6.86506 29.6818
ltoes -7.64304
1795
root 0.18311 18.298 0.296539 8.11636 -5.18246 -3.2376
lowerback -8.28918 0.117056 3.41516
upperback -3.6008 -0.149027 2.40191
thorax 0.917377 -0.0918459 0.545709
lowerneck -8.53746 -0.0859682 3.99509
upperneck 15.7645 -0.0679452 -4.02623
head 6.1746 -0.11522 -1.94617
rclavicle -9.74045e-015 -3.18055e-015
rhumerus 12.8335 7.03939 -44.8791
rradius 59.1569
rwrist 14.9928
rhand -7.93923 5.13663
rfingers 7.12502
rthumb 17.9673 -24.0534
lclavicle -9.74045e-015 -3.18055e-015
lhumerus -1.73545 5.52603 61.8352
lradius 47.1739
lwrist -24.7198
lhand -17.8439 20.6855
lfingers 7.12502
lthumb 8.42103 50.4977
rfemur 0 0 0
rtibia 0
rfoot 0 0
rtoes 0
lfemur -10.7815 -24.6793 -13.4881
ltibia 17.1506
lfoot -6.83362 29.737
ltoes -7.26714
1796
root 0.184809 18.3019 0.303124 8.33122 -5.15422 -3.33389
lowerback -8.26934 0.121826 3.52767
upperback -3.60221 -0.151233 2.4689
thorax 0.904471 -0.0936999 0.551686
lowerneck -8.55652 -0.0611346 4.03978
upperneck 15.5133 -0.0294707 -4.12962
head 6.09994 -0.102261 -1.981
rclavicle 1.26725e-015 3.18055e-015
rhumerus 11.4484 3.57006 -44.9422
rradius 58.2488
rwrist 16.3765
rhand -8.03319 5.07214
rfingers 7.12502
rthumb 17.8769 -24.1262
lclavicle 1.26725e-015 3.18055e-015
lhumerus -2.37641 8.97295 60.633
lradius 46.7285
lwrist -24.3636
lhand -17.6514 21.2786
lfingers 7.12502
lthumb 8.60675 51.0831
rfemur 0 0 0
rtibia 0
rfoot 0 0
rtoes 0
lfemur -11.0689 -24.7696 -13.2775
ltibia 17.205
lfoot -6.61528 29.8389
ltoes -7.93829
1797
root 0.187881 18.3072 0.313929 8.53222 -5.17061 -3.41766
lowerback -8.23758 0.134661 3.63917
upperback -3.61475 -0.141821 2.55459
thorax 0.873694 -0.0899617 0.57859
lowerneck -8.6892 -0.0259888 3.91683
upperneck 15.4287 0.0300142 -4.12388
head 6.09896 -0.0812493 -1.95394
rclavicle 5.64051e-015 -1.27222e-014
rhumerus 10.1203 0.0470559 -44.9088
rradius 57.2949
rwrist 17.8289
rhand -8.23942 5.06712
rfingers 7.12502
rthumb 17.6785 -24.1492
lclavicle 5.64051e-015 -1.27222e-014
lhumerus -3.0902 12.9721 59.5984
lradius 46.3177
lwrist -24.6625
lhand -17.5383 21.692
lfingers 7.12502
lthumb 8.71589 51.4921
rfemur 0 0 0
rtibia 0
rfoot 0 0
rtoes 0
lfemur -11.3139 -24.8983 -13.0972
ltibia 17.1918
lfoot -6.48392 30.0547
ltoes -8.22531
1798
root 0.191645 18.3062 0.32444 8.65231 -5.28132 -3.36898
lowerback -8.09728 0.142137 3.58157
upperback -3.63034 -0.120209 2.62166
thorax 0.780896 -0.0794502 0.681786
lowerneck -8.7135 0.0293614 3.75007
upperneck 15.296 0.122689 -4.09508
head 6.06536 -0.043801 -1.90874
rclavicle -8.59744e-015 -4.37326e-015
rhumerus 8.8593 -3.25796 -44.6634
rradius 56.3749
rwrist 19.0272
rhand -8.49869 4.7972
rfingers 7.12502
rthumb 17.4289 -24.4414
lclavicle -8.59744e-015 -4.37326e-015
lhumerus -3.96787 16.6634 58.3603
lradius 45.9118
lwrist -24.7747
lhand -17.5078 21.9455
lfingers 7.12502
lthumb 8.74532 51.7443
rfemur 0 0 0
rtibia 0
rfoot 0 0
rtoes 0
lfemur -11.3481 -24.9961 -13.1361
ltibia 17.1253
lfoot -6.9893 30.2287
ltoes -7.48291
1799
root 0.193208 18.3005 0.330372 8.77264 -5.39147 -3.27744
lowerback -7.8811 0.139236 3.437
upperback -3.65279 -0.101561 2.67996
thorax 0.639346 -0.070046 0.824135
lowerneck -8.70614 0.0898938 3.68858
upperneck 15.0722 0.224264 -4.1848
head 5.99772 -0.00452406 -1.91708
rclavicle -8.02593e-015 1.74931e-014
rhumerus 7.66902 -6.40122 -44.2407
rradius 55.5103
rwrist 20.0116
rhand -8.71505 4.42131
rfingers 7.12502
rthumb 17.2207 -24.8356
lclavicle -8.02593e-015 1.74931e-014
lhumerus -4.94616 19.885 56.8481
lradius 45.5457
lwrist -24.643
lhand -17.0206 22.0184
lfingers 7.12502
lthumb 9.21548 51.797
rfemur 0 0 0
rtibia 0
rfoot 0 0
rtoes 0
lfemur -11.3129 -25.0293 -13.2256
ltibia 17.0065
lfoot -7.61346 30.2799
ltoes -6.31366
1800
root 0.193783 18.2992 0.338352 8.88806 -5.46123 -3.26403
lowerback -7.7074 0.140405 3.41827
upperback -3.62596 -0.0909493 2.73065
thorax 0.571396 -0.0647466 0.887494
lowerneck -8.78604 0.145835 3.75249
upperneck 14.8568 0.315408 -4.38684
head 5.94756 0.0276156 -1.98314
rclavicle -6.43565e-015 2.46493e-014
rhumerus 6.53817 -9.55248 -43.7654
rradius 54.677
rwrist 20.9776
rhand -8.81216 4.19169
rfingers 7.12502
rthumb 17.1272 -25.0734
lclavicle -6.43565e-015 2.46493e-014
lhumerus -5.92455 22.7707 55.2258
lradius 45.2226
lwrist -24.2848
lhand -16.6955 22.4754
lfingers 7.12502
lthumb 9.52914 52.24
rfemur 0 0 0
rtibia 0
rfoot 0 0
rtoes 0
lfemur -11.292 -25.0716 -13.2149
ltibia 16.8398
lfoot -7.99305 30.3432
ltoes -5.04986
1801
root 0.195027 18.3004 0.349852 8.99889 -5.5547 -3.30208
lowerback -7.59477 0.131274 3.50621
upperback -3.55331 -0.106727 2.78487
thorax 0.583775 -0.0726185 0.892753
lowerneck -8.95336 0.244221 3.81832
upperneck 14.7103 0.460438 -4.57576
head 5.93691 0.0860704 -2.04215
rclavicle 6.75868e-015 0
rhumerus 5.51098 -12.5019 -43.1823
rradius 53.8846
rwrist 21.7107
rhand -8.80485 4.03753
rfingers 7.12502
rthumb 17.1343 -25.227
lclavicle 6.75868e-015 0
lhumerus -6.98768 25.5242 53.4846
lradius 44.8905
lwrist -23.8152
lhand -16.8979 23.1517
lfingers 7.12502
lthumb 9.33383 52.925
rfemur 0 0 0
rtibia 0
rfoot 0 0
rtoes 0
lfemur -11.2738 -25.147 -13.1606
ltibia 16.6882
lfoot -8.16241 30.4819
ltoes -4.31951
1802
root 0.198466 18.3031 0.361412 9.15826 -5.55484 -3.3168
lowerback -7.50094 0.0623571 3.59498
upperback -3.51095 -0.201867 2.8577
thorax 0.574412 -0.120449 0.910636
lowerneck -9.11526 0.351721 3.75111
upperneck 14.5464 0.625119 -4.68577
head 5.9208 0.152786 -2.05222
rclavicle 1.21756e-014 -2.70347e-014
rhumerus 4.53622 -15.0316 -42.3946
rradius 53.1535
rwrist 22.205
rhand -8.91288 3.74046
rfingers 7.12502
rthumb 17.0303 -25.533
lclavicle 1.21756e-014 -2.70347e-014
lhumerus -8.31593 28.106 51.5456
lradius 44.5549
lwrist -23.4273
lhand -17.097 23.6261
lfingers 7.12502
lthumb 9.14171 53.408
rfemur 0 0 0
rtibia 0
rfoot 0 0
rtoes 0
lfemur -11.3733 -25.3377 -13.089
ltibia 16.5894
lfoot -7.59631 30.7072
ltoes -5.01822
1803
root 0.202193 18.3052 0.371698 9.27384 -5.59744 -3.21698
lowerback -7.3518 -0.0108014 3.52349
upperback -3.4653 -0.288664 2.91992
thorax 0.53906 -0.162802 1.00809
lowerneck -9.16245 0.464098 3.73134
upperneck 14.2525 0.799203 -4.86619
head 5.84495 0.223364 -2.09025
rclavicle 5.32991e-015 -5.56597e-015
rhumerus 3.68836 -17.4686 -41.6
rradius 52.3062
rwrist 22.7976
rhand -9.1076 3.37586
rfingers 7.12502
rthumb 16.8429 -25.9137
lclavicle 5.32991e-015 -5.56597e-015
lhumerus -9.87082 30.1273 49.3912
lradius 44.2796
lwrist -22.8039
lhand -17.0682 23.994
lfingers 7.12502
lthumb 9.16952 53.7746
rfemur 0 0 0
rtibia 0
rfoot 0 0
rtoes 0
lfemur -11.4445 -25.5301 -13.1677
ltibia 16.5173
lfoot -7.08378 30.9619
ltoes -5.84408
1804
root 0.204148 18.3054 0.381393 9.38423 -5.71101 -3.14649
lowerback -7.18519 -0.0387428 3.45683
upperback -3.41678 -0.314961 2.97908
thorax 0.497608 -0.175052 1.10453
lowerneck -9.14188 0.586408 3.85274
upperneck 13.8799 0.980018 -5.15554
head 5.73448 0.298375 -2.18496
rclavicle -1.8313e-014 -1.19271e-014
rhumerus 2.81825 -19.9855 -40.8026
rradius 51.4847
rwrist 23.5084
rhand -9.03001 3.06677
rfingers 7.12502
rthumb 16.9175 -26.2164
lclavicle -1.8313e-014 -1.19271e-014
lhumerus -11.4435 31.8451 47.2098
lradius 43.9537
lwrist -22.027
lhand -17.0656 24.1116
lfingers 7.12502
lthumb 9.17207 53.8921
rfemur 0 0 0
rtibia 0
rfoot 0 0
rtoes 0
lfemur -11.4745 -25.6415 -13.2309
ltibia 16.4318
lfoot -7.44339 31.1645
ltoes -4.98221
